<svg width="31" height="34" viewBox="0 0 31 34" fill="none" xmlns="http://www.w3.org/2000/svg">
<path d="M12.3546 5.29702C12.3546 4.39951 12.725 3.53876 13.3844 2.90413C14.0437 2.2695 14.938 1.91296 15.8705 1.91296C16.803 1.91296 17.6973 2.2695 18.3567 2.90413C19.0161 3.53876 19.3865 4.39951 19.3865 5.29702C21.4054 6.21584 23.1265 7.64611 24.3652 9.43454C25.604 11.223 26.3138 13.3021 26.4185 15.4492V20.5253C26.5508 21.5772 26.9378 22.5846 27.5485 23.4662C28.1592 24.3479 28.9764 25.0792 29.9344 25.6014H1.80664C2.76464 25.0792 3.58187 24.3479 4.19256 23.4662C4.80324 22.5846 5.19032 21.5772 5.32261 20.5253V15.4492C5.42732 13.3021 6.13709 11.223 7.37586 9.43454C8.61462 7.64611 10.3357 6.21584 12.3546 5.29702" stroke="black" stroke-width="2" stroke-linecap="round" stroke-linejoin="round"/>
<path d="M10.5967 25.6013V27.2933C10.5967 28.6396 11.1523 29.9307 12.1414 30.8827C13.1305 31.8346 14.4719 32.3694 15.8707 32.3694C17.2694 32.3694 18.6109 31.8346 19.5999 30.8827C20.589 29.9307 21.1447 28.6396 21.1447 27.2933V25.6013" stroke="black" stroke-width="2" stroke-linecap="round" stroke-linejoin="round"/>
</svg>
