<svg width="35" height="36" viewBox="0 0 35 36" fill="none" xmlns="http://www.w3.org/2000/svg">
<g clip-path="url(#clip0_298_444)">
<path d="M9.92775 0.5C10.2526 0.5 10.5642 0.629062 10.794 0.858794C11.0237 1.08853 11.1528 1.40011 11.1528 1.725V4.01575H24.3075V1.74075C24.3075 1.41586 24.4366 1.10428 24.6663 0.874544C24.896 0.644812 25.2076 0.51575 25.5325 0.51575C25.8574 0.51575 26.169 0.644812 26.3987 0.874544C26.6284 1.10428 26.7575 1.41586 26.7575 1.74075V4.01575H31.5C32.428 4.01575 33.3179 4.38426 33.9743 5.04026C34.6306 5.69626 34.9995 6.58605 35 7.514V32.0017C34.9995 32.9297 34.6306 33.8195 33.9743 34.4755C33.3179 35.1315 32.428 35.5 31.5 35.5H3.5C2.57205 35.5 1.68207 35.1315 1.02574 34.4755C0.369418 33.8195 0.000463977 32.9297 0 32.0017L0 7.514C0.000463977 6.58605 0.369418 5.69626 1.02574 5.04026C1.68207 4.38426 2.57205 4.01575 3.5 4.01575H8.70275V1.72325C8.70321 1.39866 8.83248 1.08753 9.06216 0.858175C9.29184 0.628822 9.60316 0.5 9.92775 0.5ZM2.45 14.0485V32.0017C2.45 32.1396 2.47716 32.2762 2.52993 32.4036C2.58269 32.531 2.66004 32.6467 2.75754 32.7442C2.85504 32.8417 2.97079 32.9191 3.09818 32.9718C3.22557 33.0246 3.36211 33.0518 3.5 33.0518H31.5C31.6379 33.0518 31.7744 33.0246 31.9018 32.9718C32.0292 32.9191 32.145 32.8417 32.2425 32.7442C32.34 32.6467 32.4173 32.531 32.4701 32.4036C32.5228 32.2762 32.55 32.1396 32.55 32.0017V14.073L2.45 14.0485ZM11.6672 26.0833V28.9987H8.75V26.0833H11.6672ZM18.9578 26.0833V28.9987H16.0422V26.0833H18.9578ZM26.25 26.0833V28.9987H23.3328V26.0833H26.25ZM11.6672 19.1235V22.039H8.75V19.1235H11.6672ZM18.9578 19.1235V22.039H16.0422V19.1235H18.9578ZM26.25 19.1235V22.039H23.3328V19.1235H26.25ZM8.70275 6.464H3.5C3.36211 6.464 3.22557 6.49116 3.09818 6.54393C2.97079 6.59669 2.85504 6.67404 2.75754 6.77154C2.66004 6.86904 2.58269 6.98479 2.52993 7.11218C2.47716 7.23957 2.45 7.37611 2.45 7.514V11.6003L32.55 11.6248V7.514C32.55 7.37611 32.5228 7.23957 32.4701 7.11218C32.4173 6.98479 32.34 6.86904 32.2425 6.77154C32.145 6.67404 32.0292 6.59669 31.9018 6.54393C31.7744 6.49116 31.6379 6.464 31.5 6.464H26.7575V8.08975C26.7575 8.41464 26.6284 8.72622 26.3987 8.95596C26.169 9.18569 25.8574 9.31475 25.5325 9.31475C25.2076 9.31475 24.896 9.18569 24.6663 8.95596C24.4366 8.72622 24.3075 8.41464 24.3075 8.08975V6.464H11.1528V8.074C11.1528 8.39889 11.0237 8.71047 10.794 8.94021C10.5642 9.16994 10.2526 9.299 9.92775 9.299C9.60286 9.299 9.29128 9.16994 9.06154 8.94021C8.83181 8.71047 8.70275 8.39889 8.70275 8.074V6.464Z" fill="black"/>
</g>
<defs>
<clipPath id="clip0_298_444">
<rect width="35" height="35" fill="white" transform="translate(0 0.5)"/>
</clipPath>
</defs>
</svg>
