<svg width="100" height="100" viewBox="0 0 100 100" fill="none" xmlns="http://www.w3.org/2000/svg">
<rect x="3.53491" y="3.67004" width="93.17" height="93.17" rx="46.585" fill="#3CB57A" fill-opacity="0.03"/>
<rect x="1.99491" y="2.13004" width="96.25" height="96.25" rx="48.125" stroke="#3CB57A" stroke-opacity="0.65" stroke-width="3.08"/>
<path d="M54.1393 28.0384C54.2128 27.7635 54.3397 27.5059 54.5129 27.2801C54.686 27.0543 54.9019 26.8649 55.1483 26.7226C55.3946 26.5803 55.6666 26.488 55.9487 26.4508C56.2308 26.4137 56.5174 26.4325 56.7922 26.5062C60.8069 27.5537 64.4698 29.6524 67.4036 32.5863C70.3375 35.5201 72.4362 39.183 73.4837 43.1977C73.5574 43.4725 73.5762 43.7591 73.5391 44.0412C73.5019 44.3233 73.4096 44.5953 73.2673 44.8416C73.125 45.088 72.9356 45.3039 72.7098 45.477C72.484 45.6502 72.2264 45.7771 71.9515 45.8506C71.7686 45.8987 71.5803 45.9232 71.3912 45.9237C70.914 45.9237 70.4501 45.7661 70.0717 45.4753C69.6933 45.1845 69.4215 44.7769 69.2987 44.3157C68.4443 41.0384 66.7315 38.0482 64.3366 35.6533C61.9417 33.2584 58.9515 31.5456 55.6742 30.6912C55.3991 30.618 55.1411 30.4913 54.9151 30.3183C54.689 30.1453 54.4993 29.9294 54.3567 29.683C54.2142 29.4366 54.1216 29.1645 54.0843 28.8823C54.047 28.6001 54.0657 28.3133 54.1393 28.0384ZM53.5085 39.3537C57.2415 40.3499 59.64 42.7484 60.6362 46.4814C60.759 46.9425 61.0308 47.3501 61.4092 47.6409C61.7876 47.9317 62.2515 48.0893 62.7287 48.0893C62.9178 48.0889 63.1061 48.0643 63.289 48.0162C63.5639 47.9427 63.8215 47.8158 64.0473 47.6427C64.2731 47.4695 64.4625 47.2536 64.6048 47.0073C64.7471 46.7609 64.8394 46.4889 64.8766 46.2068C64.9137 45.9248 64.8949 45.6382 64.8212 45.3634C63.4352 40.1767 59.8132 36.5547 54.6265 35.1687C54.0716 35.0204 53.4804 35.0987 52.9832 35.3863C52.4859 35.6739 52.1233 36.1472 51.975 36.7022C51.8267 37.2572 51.905 37.8483 52.1926 38.3456C52.4802 38.8428 52.9536 39.2055 53.5085 39.3537ZM75.69 65.1653C75.2073 68.8334 73.4058 72.2004 70.6221 74.6374C67.8384 77.0744 64.2628 78.4147 60.5631 78.4081C39.0692 78.4081 21.5818 60.9207 21.5818 39.4268C21.5752 35.7271 22.9155 32.1515 25.3525 29.3678C27.7895 26.584 31.1565 24.7826 34.8246 24.2999C35.7522 24.1867 36.6915 24.3764 37.5024 24.8409C38.3132 25.3054 38.9521 26.0196 39.3237 26.877L45.0409 39.6407V39.6732C45.3254 40.3295 45.4429 41.0461 45.3829 41.7589C45.3229 42.4717 45.0873 43.1585 44.6972 43.7581C44.6484 43.8312 44.597 43.8988 44.5429 43.9665L38.9068 50.6475C40.9344 54.7676 45.244 59.0393 49.4182 61.0723L56.0071 55.466C56.0718 55.4116 56.1396 55.361 56.2102 55.3144C56.8092 54.9149 57.4984 54.671 58.2154 54.6048C58.9325 54.5386 59.6547 54.6522 60.3167 54.9354L60.3519 54.9517L73.1047 60.6662C73.9637 61.0364 74.6797 61.6748 75.1457 62.4858C75.6116 63.2967 75.8026 64.2368 75.69 65.1653ZM71.3912 64.6239C71.3912 64.6239 71.3722 64.6239 71.3614 64.6239L58.6384 58.9256L52.0467 64.5318C51.9828 64.586 51.9159 64.6366 51.8464 64.6834C51.2231 65.0993 50.5027 65.3463 49.7554 65.4004C49.0081 65.4545 48.2595 65.3138 47.5828 64.992C42.5126 62.5422 37.4586 57.526 35.006 52.5099C34.6812 51.8382 34.5355 51.0939 34.5829 50.3493C34.6303 49.6047 34.8693 48.885 35.2767 48.2599C35.3226 48.1865 35.3742 48.1168 35.431 48.0514L41.0724 41.3624L35.3877 28.6393C35.3866 28.6285 35.3866 28.6176 35.3877 28.6068C32.7625 28.9493 30.3523 30.2369 28.6082 32.2286C26.8642 34.2203 25.906 36.7795 25.9131 39.4268C25.9231 48.6135 29.5769 57.421 36.0729 63.917C42.5689 70.413 51.3764 74.0668 60.5631 74.0768C63.2088 74.0859 65.7673 73.1311 67.7601 71.3908C69.753 69.6505 71.0438 67.244 71.3912 64.6212V64.6239Z" fill="#3CB57A"/>
</svg>
