<svg width="100" height="100" viewBox="0 0 100 100" fill="none" xmlns="http://www.w3.org/2000/svg">
<rect x="3.47507" y="3.61003" width="93.17" height="93.17" rx="46.585" fill="#3CB57A" fill-opacity="0.03"/>
<rect x="1.93507" y="2.07003" width="96.25" height="96.25" rx="48.125" stroke="#3CB57A" stroke-opacity="0.65" stroke-width="3.08"/>
<path d="M75.086 38.0567C78.0911 44.3419 78.6616 51.5175 76.6873 58.1985C74.7131 64.8796 70.334 70.5926 64.3952 74.2348C58.4565 77.877 51.379 79.1903 44.5289 77.9213C37.6788 76.6522 31.5416 72.8907 27.3018 67.3627C23.0619 61.8347 21.0201 54.9322 21.5702 47.9873C22.1203 41.0423 25.2235 34.5474 30.2808 29.7559C35.3381 24.9644 41.991 22.216 48.9554 22.0412C55.9199 21.8665 62.7023 24.2777 67.9935 28.8095L74.1304 22.6699C74.5367 22.2636 75.0879 22.0353 75.6626 22.0353C76.2372 22.0353 76.7884 22.2636 77.1947 22.6699C77.6011 23.0763 77.8294 23.6274 77.8294 24.2021C77.8294 24.7768 77.6011 25.3279 77.1947 25.7343L51.2072 51.7218C50.8009 52.1282 50.2497 52.3564 49.6751 52.3564C49.1004 52.3564 48.5492 52.1282 48.1429 51.7218C47.7365 51.3154 47.5082 50.7643 47.5082 50.1896C47.5082 49.6149 47.7365 49.0638 48.1429 48.6574L55.6468 41.1535C53.6131 39.8086 51.1851 39.1893 48.7557 39.396C46.3263 39.6027 44.0377 40.6232 42.2605 42.2924C40.4833 43.9617 39.3215 46.1818 38.9631 48.5935C38.6047 51.0052 39.0708 53.4672 40.2858 55.5811C41.5008 57.695 43.3937 59.3369 45.658 60.2411C47.9223 61.1453 50.4255 61.2589 52.7624 60.5634C55.0992 59.8679 57.133 58.4041 58.5344 56.4089C59.9358 54.4137 60.6228 52.0039 60.4842 49.5697C60.4682 49.2853 60.5084 49.0005 60.6025 48.7317C60.6965 48.4628 60.8426 48.2151 61.0324 48.0027C61.2222 47.7903 61.452 47.6173 61.7086 47.4937C61.9652 47.3701 62.2437 47.2983 62.5281 47.2823C63.1024 47.25 63.6661 47.4471 64.0951 47.8304C64.3075 48.0202 64.4804 48.25 64.604 48.5066C64.7276 48.7632 64.7995 49.0417 64.8155 49.3261C65.0129 52.7715 64.0288 56.1812 62.0259 58.9916C60.0229 61.802 57.121 63.8448 53.7997 64.7825C50.4784 65.7201 46.9366 65.4964 43.7596 64.1484C40.5827 62.8004 37.9608 60.4087 36.3273 57.3687C34.6938 54.3287 34.1464 50.8223 34.7757 47.429C35.405 44.0358 37.1733 40.9588 39.7883 38.7067C42.4032 36.4546 45.7084 35.1622 49.1574 35.043C52.6065 34.9238 55.993 35.985 58.7572 38.0513L64.9157 31.8928C60.4025 28.1457 54.664 26.1982 48.8025 26.4242C42.9409 26.6503 37.3695 29.0341 33.1583 33.1176C28.9472 37.2012 26.3933 42.6966 25.987 48.5485C25.5808 54.4004 27.3509 60.196 30.9575 64.8222C34.564 69.4485 39.7526 72.5792 45.5267 73.613C51.3008 74.6468 57.2533 73.5108 62.2409 70.4233C67.2285 67.3357 70.8996 62.5143 72.5489 56.885C74.1983 51.2557 73.7097 45.2155 71.177 39.9245C70.9293 39.4062 70.8977 38.8107 71.0891 38.269C71.2805 37.7273 71.6792 37.2838 72.1976 37.0361C72.7159 36.7885 73.3115 36.7568 73.8531 36.9482C74.3948 37.1396 74.8383 37.5383 75.086 38.0567Z" fill="#3CB57A"/>
</svg>
