<svg width="40" height="40" viewBox="0 0 40 40" fill="none" xmlns="http://www.w3.org/2000/svg">
<path d="M21.9503 6.66671L30.0003 14.7167V33.3334H10.0003V6.66671H21.9503ZM23.3337 3.33337H10.0003C8.16699 3.33337 6.66699 4.83337 6.66699 6.66671V33.3334C6.66699 35.1667 8.16699 36.6667 10.0003 36.6667H30.0003C31.8337 36.6667 33.3337 35.1667 33.3337 33.3334V13.3334L23.3337 3.33337ZM20.0003 23.3334C21.8337 23.3334 23.3337 21.8334 23.3337 20C23.3337 18.1667 21.8337 16.6667 20.0003 16.6667C18.167 16.6667 16.667 18.1667 16.667 20C16.667 21.8334 18.167 23.3334 20.0003 23.3334ZM26.667 29.05C26.667 27.7 25.867 26.5 24.6337 25.9667C23.1722 25.3289 21.5949 24.9997 20.0003 24.9997C18.4058 24.9997 16.8284 25.3289 15.367 25.9667C14.7632 26.2248 14.2485 26.6547 13.887 27.2028C13.5255 27.751 13.3331 28.3934 13.3337 29.05V30H26.667V29.05Z" fill="#606060"/>
</svg>
