<svg width="35" height="42" viewBox="0 0 35 42" fill="none" xmlns="http://www.w3.org/2000/svg">
<path d="M32.9998 40.3692V34.6026C32.9998 29.1666 32.9998 26.4467 31.3102 24.759C29.6225 23.0694 26.9026 23.0694 21.4666 23.0694L17.6222 26.9138L13.7778 23.0694C8.34185 23.0694 5.62194 23.0694 3.93424 24.759C2.24463 26.4467 2.24463 29.1666 2.24463 34.6026V40.3692M25.311 23.0694V33.6415" stroke="black" stroke-width="2.56293" stroke-linecap="round" stroke-linejoin="round"/>
<path d="M10.8947 23.0696V30.7584M10.8947 30.7584C11.9143 30.7584 12.8921 31.1634 13.6131 31.8844C14.3341 32.6054 14.7391 33.5832 14.7391 34.6028V36.525M10.8947 30.7584C9.87509 30.7584 8.89726 31.1634 8.17629 31.8844C7.45533 32.6054 7.05029 33.5832 7.05029 34.6028V36.525M24.3501 10.5753V8.65309C24.3501 7.76959 24.1761 6.89475 23.838 6.07851C23.4999 5.26226 23.0043 4.52061 22.3796 3.89588C21.7549 3.27116 21.0132 2.7756 20.197 2.4375C19.3807 2.0994 18.5059 1.92538 17.6224 1.92538C16.7389 1.92538 15.8641 2.0994 15.0478 2.4375C14.2316 2.7756 13.4899 3.27116 12.8652 3.89588C12.2405 4.52061 11.7449 5.26226 11.4068 6.07851C11.0687 6.89475 10.8947 7.76959 10.8947 8.65309V10.5753C10.8947 11.4588 11.0687 12.3336 11.4068 13.1499C11.7449 13.9661 12.2405 14.7078 12.8652 15.3325C13.4899 15.9572 14.2316 16.4528 15.0478 16.7909C15.8641 17.129 16.7389 17.303 17.6224 17.303C18.5059 17.303 19.3807 17.129 20.197 16.7909C21.0132 16.4528 21.7549 15.9572 22.3796 15.3325C23.0043 14.7078 23.4999 13.9661 23.838 13.1499C24.1761 12.3336 24.3501 11.4588 24.3501 10.5753ZM26.7528 35.0833C26.7528 35.4657 26.601 35.8324 26.3306 36.1027C26.0602 36.3731 25.6935 36.525 25.3112 36.525C24.9288 36.525 24.5622 36.3731 24.2918 36.1027C24.0214 35.8324 23.8695 35.4657 23.8695 35.0833C23.8695 34.701 24.0214 34.3343 24.2918 34.0639C24.5622 33.7936 24.9288 33.6417 25.3112 33.6417C25.6935 33.6417 26.0602 33.7936 26.3306 34.0639C26.601 34.3343 26.7528 34.701 26.7528 35.0833Z" stroke="black" stroke-width="2.56293" stroke-linecap="round" stroke-linejoin="round"/>
</svg>
