<svg width="60" height="60" viewBox="0 0 60 60" fill="none" xmlns="http://www.w3.org/2000/svg">
<path d="M30 38.9375C29.6667 38.9375 29.3542 38.8858 29.0625 38.7825C28.7708 38.6792 28.5 38.5017 28.25 38.25L19.25 29.25C18.75 28.75 18.51 28.1667 18.53 27.5C18.55 26.8333 18.79 26.25 19.25 25.75C19.75 25.25 20.3442 24.99 21.0325 24.97C21.7208 24.95 22.3142 25.1892 22.8125 25.6875L27.5 30.375V12.5C27.5 11.7917 27.74 11.1983 28.22 10.72C28.7 10.2417 29.2933 10.0017 30 10C30.7067 9.99834 31.3008 10.2383 31.7825 10.72C32.2642 11.2017 32.5033 11.795 32.5 12.5V30.375L37.1875 25.6875C37.6875 25.1875 38.2817 24.9475 38.97 24.9675C39.6583 24.9875 40.2517 25.2483 40.75 25.75C41.2083 26.25 41.4483 26.8333 41.47 27.5C41.4917 28.1667 41.2517 28.75 40.75 29.25L31.75 38.25C31.5 38.5 31.2292 38.6775 30.9375 38.7825C30.6458 38.8875 30.3333 38.9392 30 38.9375ZM15 50C13.625 50 12.4483 49.5108 11.47 48.5325C10.4917 47.5542 10.0017 46.3767 10 45V40C10 39.2917 10.24 38.6983 10.72 38.22C11.2 37.7417 11.7933 37.5017 12.5 37.5C13.2067 37.4983 13.8008 37.7383 14.2825 38.22C14.7642 38.7017 15.0033 39.295 15 40V45H45V40C45 39.2917 45.24 38.6983 45.72 38.22C46.2 37.7417 46.7933 37.5017 47.5 37.5C48.2067 37.4983 48.8008 37.7383 49.2825 38.22C49.7642 38.7017 50.0033 39.295 50 40V45C50 46.375 49.5108 47.5525 48.5325 48.5325C47.5542 49.5125 46.3767 50.0017 45 50H15Z" fill="#606060"/>
</svg>
