<svg width="66" height="81" viewBox="0 0 66 81" fill="none" xmlns="http://www.w3.org/2000/svg">
<path d="M63 78V66.75C63 56.145 63 50.8387 59.7038 47.5462C56.4113 44.25 51.105 44.25 40.5 44.25L33 51.75L25.5 44.25C14.895 44.25 9.58875 44.25 6.29625 47.5462C3 50.8387 3 56.145 3 66.75V78M48 44.25V64.875" stroke="white" stroke-width="5" stroke-linecap="round" stroke-linejoin="round"/>
<path d="M19.875 44.25V59.25M19.875 59.25C21.8641 59.25 23.7718 60.0402 25.1783 61.4467C26.5848 62.8532 27.375 64.7609 27.375 66.75V70.5M19.875 59.25C17.8859 59.25 15.9782 60.0402 14.5717 61.4467C13.1652 62.8532 12.375 64.7609 12.375 66.75V70.5M46.125 19.875V16.125C46.125 14.4014 45.7855 12.6947 45.1259 11.1023C44.4663 9.50988 43.4995 8.06299 42.2808 6.84422C41.062 5.62545 39.6151 4.65867 38.0227 3.99908C36.4303 3.33949 34.7236 3 33 3C31.2764 3 29.5697 3.33949 27.9773 3.99908C26.3849 4.65867 24.938 5.62545 23.7192 6.84422C22.5005 8.06299 21.5337 9.50988 20.8741 11.1023C20.2145 12.6947 19.875 14.4014 19.875 16.125V19.875C19.875 21.5986 20.2145 23.3053 20.8741 24.8977C21.5337 26.4901 22.5005 27.937 23.7192 29.1558C24.938 30.3745 26.3849 31.3413 27.9773 32.0009C29.5697 32.6605 31.2764 33 33 33C34.7236 33 36.4303 32.6605 38.0227 32.0009C39.6151 31.3413 41.062 30.3745 42.2808 29.1558C43.4995 27.937 44.4663 26.4901 45.1259 24.8977C45.7855 23.3053 46.125 21.5986 46.125 19.875ZM50.8125 67.6875C50.8125 68.4334 50.5162 69.1488 49.9887 69.6762C49.4613 70.2037 48.7459 70.5 48 70.5C47.2541 70.5 46.5387 70.2037 46.0113 69.6762C45.4838 69.1488 45.1875 68.4334 45.1875 67.6875C45.1875 66.9416 45.4838 66.2262 46.0113 65.6988C46.5387 65.1713 47.2541 64.875 48 64.875C48.7459 64.875 49.4613 65.1713 49.9887 65.6988C50.5162 66.2262 50.8125 66.9416 50.8125 67.6875Z" stroke="white" stroke-width="5" stroke-linecap="round" stroke-linejoin="round"/>
</svg>
