<svg width="40" height="40" viewBox="0 0 40 40" fill="none" xmlns="http://www.w3.org/2000/svg">
<path fill-rule="evenodd" clip-rule="evenodd" d="M3.72301 7.26163C3.47103 7.56187 3.33295 7.94132 3.33301 8.33329V28.3333C3.33301 29.6594 3.85979 30.9311 4.79747 31.8688C5.73516 32.8065 7.00693 33.3333 8.33301 33.3333H31.6663C32.9924 33.3333 34.2642 32.8065 35.2019 31.8688C36.1396 30.9311 36.6663 29.6594 36.6663 28.3333V8.34996C36.6686 8.10149 36.6154 7.85565 36.5104 7.63043C36.4054 7.40521 36.2514 7.20631 36.0597 7.04829C35.7631 6.80334 35.391 6.66849 35.0063 6.66663H4.99967C4.75634 6.66659 4.51595 6.71984 4.2954 6.82264C4.07484 6.92543 3.87947 7.07527 3.72301 7.26163ZM6.66634 12.3566V28.3333C6.66634 28.7753 6.84194 29.1992 7.1545 29.5118C7.46706 29.8244 7.89098 30 8.33301 30H31.6663C32.1084 30 32.5323 29.8244 32.8449 29.5118C33.1574 29.1992 33.333 28.7753 33.333 28.3333V12.3566L21.178 24.5116C20.8655 24.8241 20.4416 24.9996 19.9997 24.9996C19.5577 24.9996 19.1339 24.8241 18.8213 24.5116L6.66634 12.3566Z" fill="#606060"/>
</svg>
