<svg width="100" height="100" viewBox="0 0 100 100" fill="none" xmlns="http://www.w3.org/2000/svg">
<rect x="3.44495" y="3.61" width="93.17" height="93.17" rx="46.585" fill="#3CB57A" fill-opacity="0.03"/>
<rect x="1.90495" y="2.07" width="96.25" height="96.25" rx="48.125" stroke="#3CB57A" stroke-opacity="0.65" stroke-width="3.08"/>
<path d="M34.4856 39.3669V26.3731C34.4856 25.7988 34.7138 25.2479 35.1199 24.8418C35.526 24.4357 36.0769 24.2075 36.6512 24.2075C37.2256 24.2075 37.7764 24.4357 38.1826 24.8418C38.5887 25.2479 38.8169 25.7988 38.8169 26.3731V39.3669C38.8169 39.9412 38.5887 40.4921 38.1826 40.8982C37.7764 41.3043 37.2256 41.5325 36.6512 41.5325C36.0769 41.5325 35.526 41.3043 35.1199 40.8982C34.7138 40.4921 34.4856 39.9412 34.4856 39.3669ZM73.4669 26.3731V76.1825C73.4669 76.7569 73.2387 77.3077 72.8326 77.7138C72.4264 78.12 71.8756 78.3481 71.3012 78.3481C70.7269 78.3481 70.176 78.12 69.7699 77.7138C69.3638 77.3077 69.1356 76.7569 69.1356 76.1825V63.1888H56.1419C55.5675 63.1888 55.0167 62.9606 54.6105 62.5545C54.2044 62.1483 53.9762 61.5975 53.9762 61.0231C54.0768 55.8356 54.732 50.6737 55.9307 45.6255C58.5782 34.6648 63.597 27.3179 70.4485 24.3835C70.7778 24.2424 71.137 24.1852 71.4938 24.2171C71.8507 24.249 72.194 24.3688 72.4931 24.566C72.7923 24.7632 73.0378 25.0315 73.2077 25.3469C73.3777 25.6623 73.4667 26.0149 73.4669 26.3731ZM69.1356 30.1359C60.4271 36.7871 58.7217 52.9887 58.3887 58.8575H69.1356V30.1359ZM47.4496 26.0185C47.4072 25.7341 47.3086 25.4611 47.1595 25.2152C47.0104 24.9694 46.8139 24.7557 46.5814 24.5866C46.3489 24.4175 46.085 24.2963 45.8052 24.2303C45.5254 24.1642 45.2352 24.1546 44.9516 24.2018C44.668 24.2491 44.3967 24.3524 44.1534 24.5056C43.9102 24.6588 43.6998 24.859 43.5347 25.0943C43.3696 25.3297 43.253 25.5956 43.1918 25.8765C43.1305 26.1574 43.1258 26.4477 43.1779 26.7305L45.3137 39.5374C45.3137 41.8349 44.4011 44.0382 42.7766 45.6627C41.152 47.2873 38.9487 48.1999 36.6512 48.1999C34.3538 48.1999 32.1505 47.2873 30.5259 45.6627C28.9014 44.0382 27.9887 41.8349 27.9887 39.5374L30.1219 26.7305C30.174 26.4477 30.1693 26.1574 30.108 25.8765C30.0467 25.5956 29.9302 25.3297 29.765 25.0943C29.5999 24.859 29.3896 24.6588 29.1464 24.5056C28.9031 24.3524 28.6317 24.2491 28.3481 24.2018C28.0645 24.1546 27.7744 24.1642 27.4946 24.2303C27.2147 24.2963 26.9509 24.4175 26.7184 24.5866C26.4858 24.7557 26.2893 24.9694 26.1403 25.2152C25.9912 25.4611 25.8926 25.7341 25.8502 26.0185L23.6846 39.0123C23.666 39.1295 23.657 39.2481 23.6575 39.3669C23.6618 42.4361 24.7509 45.4051 26.7323 47.7491C28.7137 50.0931 31.4599 51.6613 34.4856 52.1765V76.1825C34.4856 76.7569 34.7138 77.3077 35.1199 77.7138C35.526 78.12 36.0769 78.3481 36.6512 78.3481C37.2256 78.3481 37.7764 78.12 38.1826 77.7138C38.5887 77.3077 38.8169 76.7569 38.8169 76.1825V52.1765C41.8426 51.6613 44.5888 50.0931 46.5702 47.7491C48.5516 45.4051 49.6407 42.4361 49.645 39.3669C49.6446 39.2481 49.6347 39.1295 49.6152 39.0123L47.4496 26.0185Z" fill="#3CB57A"/>
</svg>
