<svg width="40" height="40" viewBox="0 0 40 40" fill="none" xmlns="http://www.w3.org/2000/svg">
<path d="M31.667 5L23.3337 13.3333M31.667 5H25.0003M31.667 5V11.6667M18.3337 26.6667V36.6667M13.3337 31.6667H23.3337M11.667 18.3333C11.667 20.1014 12.3694 21.7971 13.6196 23.0474C14.8699 24.2976 16.5655 25 18.3337 25C20.1018 25 21.7975 24.2976 23.0477 23.0474C24.2979 21.7971 25.0003 20.1014 25.0003 18.3333C25.0003 16.5652 24.2979 14.8695 23.0477 13.6193C21.7975 12.369 20.1018 11.6667 18.3337 11.6667C16.5655 11.6667 14.8699 12.369 13.6196 13.6193C12.3694 14.8695 11.667 16.5652 11.667 18.3333Z" stroke="#606060" stroke-width="2" stroke-linecap="round" stroke-linejoin="round"/>
</svg>
