<svg width="100" height="100" viewBox="0 0 100 100" fill="none" xmlns="http://www.w3.org/2000/svg">
<rect x="3.44507" y="3.67004" width="93.17" height="93.17" rx="46.585" fill="#3CB57A" fill-opacity="0.03"/>
<rect x="1.90507" y="2.13004" width="96.25" height="96.25" rx="48.125" stroke="#3CB57A" stroke-opacity="0.65" stroke-width="3.08"/>
<path d="M81.2632 56.3187C81.0357 56.4894 80.7768 56.6135 80.5013 56.6841C80.2258 56.7547 79.9391 56.7703 79.6576 56.7301C79.3761 56.6899 79.1052 56.5946 78.8605 56.4497C78.6158 56.3048 78.402 56.1131 78.2314 55.8856C76.9261 54.1311 75.2271 52.7075 73.2711 51.7296C71.3152 50.7516 69.1569 50.2465 66.9701 50.255C66.5442 50.2549 66.1278 50.1294 65.773 49.8939C65.4181 49.6585 65.1406 49.3236 64.975 48.9312C64.8626 48.6648 64.8047 48.3785 64.8047 48.0894C64.8047 47.8002 64.8626 47.5139 64.975 47.2475C65.1406 46.8551 65.4181 46.5203 65.773 46.2848C66.1278 46.0494 66.5442 45.9238 66.9701 45.9237C68.1852 45.9236 69.3759 45.5828 70.407 44.9398C71.4381 44.2969 72.2683 43.3777 72.8031 42.2867C73.338 41.1956 73.5562 39.9764 73.4329 38.7676C73.3096 37.5588 72.8497 36.4087 72.1056 35.4481C71.3615 34.4875 70.3628 33.7549 69.2232 33.3334C68.0835 32.9119 66.8485 32.8184 65.6584 33.0637C64.4683 33.3089 63.3708 33.883 62.4906 34.7207C61.6104 35.5584 60.9827 36.6261 60.679 37.8026C60.6079 38.0781 60.4832 38.337 60.3121 38.5643C60.141 38.7916 59.9267 38.983 59.6817 39.1275C59.4366 39.2721 59.1654 39.3669 58.8837 39.4067C58.6019 39.4464 58.3151 39.4303 58.0396 39.3592C57.7641 39.2881 57.5053 39.1634 57.278 38.9923C57.0506 38.8212 56.8592 38.607 56.7147 38.3619C56.5702 38.1168 56.4753 37.8456 56.4356 37.5639C56.3958 37.2821 56.412 36.9953 56.4831 36.7198C56.9047 35.0883 57.7013 33.5778 58.8095 32.3083C59.9176 31.0389 61.3068 30.0456 62.8664 29.4075C64.426 28.7694 66.113 28.5041 67.7932 28.6327C69.4733 28.7613 71.1003 29.2802 72.5446 30.1483C73.9889 31.0163 75.2107 32.2095 76.1128 33.6328C77.0148 35.0561 77.5722 36.6703 77.7407 38.347C77.9091 40.0236 77.6839 41.7164 77.0829 43.2907C76.482 44.865 75.5219 46.2774 74.2791 47.4153C77.2238 48.6903 79.7837 50.7136 81.7045 53.2842C81.8751 53.5122 81.9991 53.7718 82.0692 54.0478C82.1394 54.3239 82.1544 54.6111 82.1134 54.893C82.0725 55.1749 81.9763 55.4459 81.8304 55.6906C81.6845 55.9352 81.4918 56.1487 81.2632 56.3187ZM66.6777 72.994C66.8344 73.2405 66.9397 73.5162 66.9871 73.8044C67.0345 74.0926 67.0231 74.3874 66.9536 74.6711C66.8841 74.9548 66.7579 75.2215 66.5827 75.4551C66.4075 75.6888 66.1868 75.8846 65.9339 76.0308C65.681 76.1769 65.4012 76.2705 65.1113 76.3057C64.8213 76.3409 64.5273 76.3171 64.2468 76.2357C63.9662 76.1543 63.7051 76.0171 63.479 75.8321C63.2529 75.6472 63.0666 75.4185 62.9312 75.1597C61.567 72.8497 59.6241 70.9353 57.2942 69.6054C54.9642 68.2755 52.3279 67.576 49.6451 67.576C46.9624 67.576 44.326 68.2755 41.996 69.6054C39.6661 70.9353 37.7232 72.8497 36.359 75.1597C36.2236 75.4185 36.0373 75.6472 35.8112 75.8321C35.5851 76.0171 35.324 76.1543 35.0435 76.2357C34.763 76.3171 34.4689 76.3409 34.1789 76.3057C33.889 76.2705 33.6092 76.1769 33.3563 76.0308C33.1034 75.8846 32.8827 75.6888 32.7075 75.4551C32.5323 75.2215 32.4061 74.9548 32.3366 74.6711C32.2671 74.3874 32.2558 74.0926 32.3032 73.8044C32.3506 73.5162 32.4558 73.2405 32.6125 72.994C34.712 69.3866 37.9134 66.5477 41.746 64.8946C39.5894 63.2434 38.0044 60.9579 37.2139 58.3594C36.4234 55.7608 36.467 52.9799 37.3387 50.4074C38.2104 47.8349 39.8663 45.6003 42.0737 44.0177C44.2811 42.435 46.929 41.5838 49.6451 41.5838C52.3612 41.5838 55.0091 42.435 57.2165 44.0177C59.4239 45.6003 61.0798 47.8349 61.9515 50.4074C62.8232 52.9799 62.8669 55.7608 62.0763 58.3594C61.2858 60.9579 59.7008 63.2434 57.5442 64.8946C61.3769 66.5477 64.5782 69.3866 66.6777 72.994ZM49.6451 63.2487C51.3584 63.2487 53.0332 62.7407 54.4577 61.7888C55.8823 60.837 56.9926 59.4841 57.6482 57.9012C58.3039 56.3184 58.4754 54.5766 58.1412 52.8963C57.8069 51.2159 56.9819 49.6724 55.7704 48.4609C54.5589 47.2495 53.0154 46.4244 51.3351 46.0902C49.6547 45.7559 47.913 45.9275 46.3301 46.5831C44.7472 47.2388 43.3944 48.3491 42.4425 49.7736C41.4907 51.1982 40.9826 52.873 40.9826 54.5862C40.9826 56.8837 41.8953 59.087 43.5198 60.7115C45.1443 62.3361 47.3477 63.2487 49.6451 63.2487ZM34.4857 48.0894C34.4857 47.515 34.2576 46.9642 33.8514 46.558C33.4453 46.1519 32.8945 45.9237 32.3201 45.9237C31.105 45.9236 29.9143 45.5828 28.8832 44.9398C27.8521 44.2969 27.022 43.3777 26.4871 42.2867C25.9522 41.1956 25.734 39.9764 25.8573 38.7676C25.9806 37.5588 26.4405 36.4087 27.1846 35.4481C27.9288 34.4875 28.9274 33.7549 30.067 33.3334C31.2067 32.9119 32.4417 32.8184 33.6318 33.0637C34.822 33.3089 35.9194 33.883 36.7996 34.7207C37.6798 35.5584 38.3075 36.6261 38.6112 37.8026C38.7548 38.3591 39.1136 38.8356 39.6086 39.1275C40.1035 39.4195 40.6942 39.5028 41.2506 39.3592C41.807 39.2156 42.2836 38.8569 42.5755 38.3619C42.8674 37.8669 42.9507 37.2762 42.8071 36.7198C42.3855 35.0883 41.5889 33.5778 40.4808 32.3083C39.3726 31.0389 37.9834 30.0456 36.4238 29.4075C34.8642 28.7694 33.1772 28.5041 31.4971 28.6327C29.8169 28.7613 28.1899 29.2802 26.7456 30.1483C25.3013 31.0163 24.0795 32.2095 23.1774 33.6328C22.2754 35.0561 21.718 36.6703 21.5496 38.347C21.3811 40.0236 21.6064 41.7164 22.2073 43.2907C22.8082 44.865 23.7683 46.2774 25.0111 47.4153C22.0693 48.6915 19.5124 50.7147 17.5939 53.2842C17.2489 53.7436 17.1006 54.3214 17.1815 54.8902C17.2625 55.459 17.5661 55.9724 18.0256 56.3174C18.4851 56.6624 19.0628 56.8107 19.6317 56.7297C20.2005 56.6487 20.7139 56.3451 21.0589 55.8856C22.3642 54.1311 24.0632 52.7075 26.0191 51.7296C27.9751 50.7516 30.1333 50.2465 32.3201 50.255C32.8945 50.255 33.4453 50.0268 33.8514 49.6207C34.2576 49.2146 34.4857 48.6637 34.4857 48.0894Z" fill="#3CB57A"/>
</svg>
