<svg width="46" height="46" viewBox="0 0 46 46" fill="none" xmlns="http://www.w3.org/2000/svg">
<path d="M34.9058 38.7858V30.8226C34.9058 30.8226 30.2183 28.0101 22.7183 28.0101C15.2183 28.0101 10.5308 30.8226 10.5308 30.8226V38.7858M3.03076 23.3226C3.03076 12.4495 11.8451 3.63513 22.7183 3.63513C33.5914 3.63513 42.4058 12.4495 42.4058 23.3226C42.4058 34.1958 33.5914 43.0101 22.7183 43.0101C11.8451 43.0101 3.03076 34.1958 3.03076 23.3226ZM22.5795 24.2601C22.5795 24.2601 16.1558 20.8476 16.1558 15.8226C16.1558 12.1983 19.0976 9.26013 22.7258 9.26013C23.5873 9.25988 24.4404 9.42951 25.2363 9.75932C26.0322 10.0891 26.7552 10.5726 27.3641 11.1821C27.9729 11.7917 28.4556 12.5153 28.7844 13.3115C29.1133 14.1078 29.282 14.9611 29.2808 15.8226C29.2808 20.8476 22.857 24.2601 22.857 24.2601H22.5795Z" stroke="white" stroke-width="3"/>
</svg>
