<svg width="130" height="130" viewBox="0 0 130 130" fill="none" xmlns="http://www.w3.org/2000/svg">
<rect x="4.52997" y="4.02997" width="121" height="121" rx="60.5" fill="#3CB57A" fill-opacity="0.03"/>
<rect x="2.52997" y="2.02997" width="125" height="125" rx="62.5" stroke="#3CB57A" stroke-opacity="0.65" stroke-width="4"/>
<g clip-path="url(#clip0_193_131)">
<path d="M100.505 69.1214C99.4588 68.3161 98.2406 67.7631 96.9456 67.5052C95.6505 67.2472 94.3134 67.2914 93.0382 67.6343L78.3288 71.0163C78.671 69.5706 78.6816 68.0663 78.3597 66.616C78.0378 65.1657 77.3919 63.807 76.4702 62.6418C75.5486 61.4767 74.3752 60.5352 73.0379 59.8881C71.7007 59.2409 70.2343 58.9048 68.7487 58.905H51.1495C49.6715 58.9013 48.2075 59.1905 46.8419 59.7559C45.4764 60.3213 44.2364 61.1517 43.1936 62.1991L35.2413 70.155H25.155C23.6631 70.155 22.2324 70.7476 21.1775 71.8025C20.1226 72.8574 19.53 74.2881 19.53 75.78V89.8425C19.53 91.3343 20.1226 92.7651 21.1775 93.8199C22.2324 94.8748 23.6631 95.4675 25.155 95.4675H61.7175C61.9474 95.4676 62.1765 95.4392 62.3995 95.3831L84.8995 89.7581C85.0429 89.724 85.183 89.6769 85.3179 89.6175L98.9831 83.8026L99.1378 83.7323C100.451 83.0761 101.576 82.0963 102.406 80.8852C103.236 79.6742 103.744 78.2718 103.882 76.8101C104.02 75.3485 103.784 73.8757 103.196 72.5306C102.608 71.1854 101.686 70.0122 100.519 69.1214H100.505ZM25.155 75.78H33.5925V89.8425H25.155V75.78ZM96.6733 78.6663L83.314 84.3546L61.3659 89.8425H39.2175V74.1311L47.1733 66.1788C47.6938 65.6542 48.3133 65.2383 48.9959 64.9552C49.6785 64.6722 50.4105 64.5276 51.1495 64.53H68.7487C69.8676 64.53 70.9407 64.9744 71.7318 65.7656C72.523 66.5568 72.9675 67.6298 72.9675 68.7487C72.9675 69.8676 72.523 70.9407 71.7318 71.7318C70.9407 72.523 69.8676 72.9675 68.7487 72.9675H58.905C58.1591 72.9675 57.4437 73.2638 56.9162 73.7912C56.3888 74.3187 56.0925 75.0341 56.0925 75.78C56.0925 76.5259 56.3888 77.2413 56.9162 77.7687C57.4437 78.2962 58.1591 78.5925 58.905 78.5925H70.155C70.3667 78.5919 70.5777 78.5683 70.7843 78.5222L94.339 73.1046L94.448 73.0765C95.167 72.8768 95.9345 72.9502 96.6027 73.2824C97.2709 73.6146 97.7927 74.1822 98.0675 74.876C98.3424 75.5698 98.351 76.3407 98.0917 77.0404C97.8324 77.7401 97.3234 78.3193 96.6628 78.6663H96.6733ZM77.1862 53.28C77.8811 53.2808 78.5748 53.2243 79.2604 53.1112C80.0316 55.4018 81.4425 57.4237 83.3264 58.9378C85.2102 60.452 87.4882 61.395 89.8911 61.6555C92.2939 61.916 94.7211 61.4831 96.8856 60.4078C99.0502 59.3326 100.862 57.6601 102.106 55.588C103.35 53.5159 103.975 51.1309 103.906 48.7149C103.838 46.299 103.079 43.9531 101.72 41.9547C100.361 39.9563 98.4574 38.3889 96.2355 37.4378C94.0136 36.4868 91.5658 36.1918 89.1815 36.5878C88.439 34.3808 87.102 32.4215 85.3177 30.9254C83.5334 29.4294 81.371 28.4545 79.0683 28.1082C76.7657 27.7619 74.4122 28.0576 72.2668 28.9626C70.1213 29.8677 68.2672 31.3471 66.9083 33.238C65.5495 35.1289 64.7386 37.358 64.565 39.68C64.3914 42.0021 64.8617 44.327 65.9243 46.399C66.9868 48.4709 68.6004 50.2096 70.5873 51.4236C72.5743 52.6377 74.8577 53.28 77.1862 53.28ZM98.28 49.0612C98.28 50.4519 97.8676 51.8113 97.095 52.9676C96.3224 54.1239 95.2243 55.0251 93.9395 55.5573C92.6547 56.0894 91.2409 56.2287 89.877 55.9574C88.5131 55.6861 87.2602 55.0164 86.2769 54.0331C85.2935 53.0497 84.6239 51.7969 84.3526 50.433C84.0813 49.069 84.2205 47.6553 84.7527 46.3705C85.2849 45.0857 86.1861 43.9876 87.3424 43.215C88.4987 42.4423 89.8581 42.03 91.2487 42.03C93.1135 42.03 94.902 42.7708 96.2206 44.0894C97.5392 45.408 98.28 47.1964 98.28 49.0612ZM77.1862 33.5925C78.7201 33.5932 80.2117 34.0956 81.4335 35.0229C82.6553 35.9502 83.5404 37.2517 83.9538 38.7288C82.5133 39.7423 81.3003 41.0454 80.3922 42.5546C79.4842 44.0637 78.9011 45.7458 78.6804 47.4933C78.1894 47.5993 77.6886 47.6535 77.1862 47.655C75.3214 47.655 73.533 46.9142 72.2144 45.5956C70.8958 44.277 70.155 42.4885 70.155 40.6237C70.155 38.7589 70.8958 36.9705 72.2144 35.6519C73.533 34.3333 75.3214 33.5925 77.1862 33.5925Z" fill="#3CB57A"/>
</g>
<defs>
<clipPath id="clip0_193_131">
<rect width="90" height="90" fill="white" transform="translate(19.53 19.53)"/>
</clipPath>
</defs>
</svg>
