<svg width="90" height="90" viewBox="0 0 90 90" fill="none" xmlns="http://www.w3.org/2000/svg">
<path d="M11.25 61.875V73.125C11.25 74.6168 11.8426 76.0476 12.8975 77.1025C13.9524 78.1574 15.3832 78.75 16.875 78.75H28.125M61.875 78.75H73.125C74.6168 78.75 76.0476 78.1574 77.1025 77.1025C78.1574 76.0476 78.75 74.6168 78.75 73.125V61.875M78.75 28.125V16.875C78.75 15.3832 78.1574 13.9524 77.1025 12.8975C76.0476 11.8426 74.6168 11.25 73.125 11.25H61.875M11.25 28.125V16.875C11.25 15.3832 11.8426 13.9524 12.8975 12.8975C13.9524 11.8426 15.3832 11.25 16.875 11.25H28.125M63.75 45L45 63.75L26.25 45C24.375 43.125 23.4375 39.375 26.25 35.625C29.0625 31.875 34.6875 31.875 37.5 33.75C40.3125 35.625 41.25 37.5 45 37.5C48.75 37.5 49.6875 35.625 52.5 33.75C55.3125 31.875 60.9375 31.875 63.75 35.625C66.5625 39.375 65.625 43.125 63.75 45Z" stroke="white" stroke-width="6" stroke-linecap="round" stroke-linejoin="round"/>
</svg>
