<svg width="100" height="100" viewBox="0 0 100 100" fill="none" xmlns="http://www.w3.org/2000/svg">
<rect x="3.44482" y="3.67023" width="93.17" height="93.17" rx="46.585" fill="#3CB57A" fill-opacity="0.03"/>
<rect x="1.90482" y="2.13023" width="96.25" height="96.25" rx="48.125" stroke="#3CB57A" stroke-opacity="0.65" stroke-width="3.08"/>
<path d="M34.4851 54.5865H23.6569C23.0826 54.5865 22.5317 54.3583 22.1256 53.9522C21.7195 53.546 21.4913 52.9952 21.4913 52.4208C21.4913 51.8465 21.7195 51.2957 22.1256 50.8895C22.5317 50.4834 23.0826 50.2552 23.6569 50.2552H33.3265L37.0134 44.7221C37.2111 44.425 37.4791 44.1814 37.7937 44.0129C38.1082 43.8444 38.4595 43.7562 38.8163 43.7562C39.1731 43.7562 39.5244 43.8444 39.839 44.0129C40.1535 44.1814 40.4215 44.425 40.6192 44.7221L47.4788 55.0088L50.0072 51.2189C50.2051 50.9223 50.4732 50.6791 50.7878 50.511C51.1023 50.3428 51.4534 50.255 51.8101 50.2552H58.3069C58.8813 50.2552 59.4321 50.4834 59.8383 50.8895C60.2444 51.2957 60.4726 51.8465 60.4726 52.4208C60.4726 52.9952 60.2444 53.546 59.8383 53.9522C59.4321 54.3583 58.8813 54.5865 58.3069 54.5865H52.9687L49.2817 60.1196C49.084 60.4167 48.816 60.6603 48.5015 60.8288C48.1869 60.9973 47.8356 61.0855 47.4788 61.0855C47.122 61.0855 46.7707 60.9973 46.4562 60.8288C46.1416 60.6603 45.8736 60.4167 45.6759 60.1196L38.8163 49.8275L36.2879 53.6174C36.0906 53.915 35.8228 54.1593 35.5082 54.3284C35.1937 54.4974 34.8422 54.5861 34.4851 54.5865ZM63.1796 26.4333C57.5896 26.4333 52.6953 28.8372 49.6444 32.9004C46.5936 28.8372 41.6993 26.4333 36.1093 26.4333C31.6595 26.4384 27.3935 28.2082 24.247 31.3547C21.1006 34.5011 19.3307 38.7672 19.3257 43.2169C19.3257 43.42 19.3257 43.623 19.3257 43.826C19.3436 44.4004 19.589 44.9441 20.0078 45.3375C20.4267 45.731 20.9846 45.9419 21.559 45.924C22.1333 45.906 22.677 45.6606 23.0705 45.2418C23.4639 44.823 23.6749 44.265 23.6569 43.6907C23.6569 43.5337 23.6569 43.374 23.6569 43.2169C23.6612 39.9157 24.9746 36.7509 27.3089 34.4166C29.6432 32.0822 32.808 30.7689 36.1093 30.7646C41.3745 30.7646 45.795 33.5691 47.6412 38.0736C47.8044 38.4708 48.082 38.8105 48.4386 39.0496C48.7953 39.2887 49.215 39.4163 49.6444 39.4163C50.0738 39.4163 50.4936 39.2887 50.8502 39.0496C51.2069 38.8105 51.4845 38.4708 51.6476 38.0736C53.4938 33.561 57.9144 30.7646 63.1796 30.7646C66.4809 30.7689 69.6457 32.0822 71.98 34.4166C74.3143 36.7509 75.6277 39.9157 75.632 43.2169C75.6319 57.7293 54.5821 70.8693 49.6444 73.7523C46.7127 72.0441 38.1044 66.714 31.594 59.6188C31.4016 59.4091 31.1699 59.2393 30.9119 59.1191C30.654 58.9989 30.3749 58.9308 30.0906 58.9184C29.8063 58.9061 29.5224 58.9499 29.255 59.0473C28.9876 59.1447 28.742 59.2939 28.5323 59.4862C28.3226 59.6785 28.1528 59.9103 28.0326 60.1682C27.9124 60.4262 27.8442 60.7053 27.8319 60.9896C27.8196 61.2739 27.8634 61.5578 27.9608 61.8252C28.0582 62.0925 28.2073 62.3381 28.3997 62.5479C36.8375 71.7518 48.142 77.8913 48.6185 78.1485C48.9338 78.3181 49.2863 78.4069 49.6444 78.4069C50.0025 78.4069 50.355 78.3181 50.6704 78.1485C51.8669 77.5042 79.9632 62.1662 79.9632 43.2169C79.9582 38.7672 78.1883 34.5011 75.0419 31.3547C71.8954 28.2082 67.6293 26.4384 63.1796 26.4333Z" fill="#3CB57A"/>
</svg>
