<svg width="100" height="100" viewBox="0 0 100 100" fill="none" xmlns="http://www.w3.org/2000/svg">
<rect x="3.44507" y="3.61005" width="93.17" height="93.17" rx="46.585" fill="#3CB57A" fill-opacity="0.03"/>
<rect x="1.90507" y="2.07005" width="96.25" height="96.25" rx="48.125" stroke="#3CB57A" stroke-opacity="0.65" stroke-width="3.08"/>
<path d="M51.8107 37.2013V48.9688L61.5885 54.8349C62.0811 55.1307 62.4359 55.6101 62.575 56.1675C62.7141 56.7249 62.6261 57.3147 62.3303 57.8073C62.0345 58.2998 61.5551 58.6546 60.9977 58.7937C60.4403 58.9328 59.8505 58.8448 59.358 58.549L48.5298 52.0521C48.2093 51.8596 47.9442 51.5873 47.7601 51.2619C47.5761 50.9365 47.4794 50.5689 47.4795 50.1951V37.2013C47.4795 36.627 47.7077 36.0761 48.1138 35.67C48.5199 35.2639 49.0708 35.0357 49.6451 35.0357C50.2195 35.0357 50.7703 35.2639 51.1765 35.67C51.5826 36.0761 51.8107 36.627 51.8107 37.2013ZM75.6326 30.7045C75.0583 30.7045 74.5074 30.9326 74.1013 31.3388C73.6952 31.7449 73.467 32.2957 73.467 32.8701V37.7427C71.748 35.7504 69.9939 33.8311 68.0205 31.8333C64.4089 28.2213 59.813 25.7537 54.807 24.7388C49.801 23.724 44.6069 24.2068 39.8738 26.127C35.1407 28.0473 31.0783 31.3197 28.1944 35.5355C25.3105 39.7513 23.7329 44.7235 23.6587 49.8308C23.5846 54.9381 25.0171 59.954 27.7773 64.2518C30.5376 68.5495 34.5032 71.9386 39.1785 73.9955C43.8539 76.0524 49.0318 76.6859 54.0651 75.8168C59.0984 74.9477 63.7641 72.6147 67.479 69.1091C67.6859 68.9136 67.8523 68.6792 67.9686 68.4194C68.0849 68.1596 68.149 67.8794 68.157 67.5949C68.1651 67.3103 68.117 67.027 68.0155 66.761C67.914 66.495 67.7612 66.2516 67.5657 66.0447C67.3701 65.8378 67.1358 65.6715 66.876 65.5552C66.6162 65.4388 66.336 65.3748 66.0514 65.3668C65.7669 65.3587 65.4835 65.4068 65.2176 65.5083C64.9516 65.6097 64.7082 65.7626 64.5013 65.9581C61.4046 68.8765 57.5167 70.8179 53.3232 71.54C49.1297 72.262 44.8165 71.7326 40.922 70.0179C37.0276 68.3033 33.7246 65.4793 31.4255 61.8987C29.1264 58.3181 27.9331 54.1395 27.9946 49.8847C28.0561 45.63 29.3697 41.4876 31.7713 37.9749C34.173 34.4623 37.5562 31.735 41.4986 30.1336C45.441 28.5322 49.7677 28.1277 53.9386 28.9707C58.1095 29.8136 61.9396 31.8666 64.9507 34.8733C67.1542 37.1039 69.0843 39.2533 71.0307 41.5326H64.8045C64.2301 41.5326 63.6793 41.7607 63.2732 42.1669C62.867 42.573 62.6389 43.1238 62.6389 43.6982C62.6389 44.2726 62.867 44.8234 63.2732 45.2295C63.6793 45.6357 64.2301 45.8638 64.8045 45.8638H75.6326C76.207 45.8638 76.7578 45.6357 77.164 45.2295C77.5701 44.8234 77.7982 44.2726 77.7982 43.6982V32.8701C77.7982 32.2957 77.5701 31.7449 77.164 31.3388C76.7578 30.9326 76.207 30.7045 75.6326 30.7045Z" fill="#3CB57A"/>
</svg>
