<svg width="29" height="29" viewBox="0 0 29 29" fill="none" xmlns="http://www.w3.org/2000/svg">
<g clip-path="url(#clip0_150_618)">
<path d="M14.76 2.96533C17.9117 2.96533 18.305 2.97693 19.5415 3.03493C20.7769 3.09293 21.6179 3.28665 22.358 3.57433C23.1236 3.86897 23.7686 4.26801 24.4135 4.91181C25.0034 5.49169 25.4598 6.19314 25.751 6.96733C26.0375 7.70625 26.2324 8.54841 26.2904 9.78381C26.3449 11.0204 26.36 11.4136 26.36 14.5653C26.36 17.7171 26.3484 18.1103 26.2904 19.3469C26.2324 20.5823 26.0375 21.4233 25.751 22.1633C25.4606 22.938 25.0041 23.6396 24.4135 24.2189C23.8335 24.8085 23.1321 25.2649 22.358 25.5563C21.6191 25.8429 20.7769 26.0377 19.5415 26.0957C18.305 26.1503 17.9117 26.1653 14.76 26.1653C11.6083 26.1653 11.215 26.1537 9.97848 26.0957C8.74308 26.0377 7.90208 25.8429 7.162 25.5563C6.3875 25.2657 5.68594 24.8092 5.10648 24.2189C4.51652 23.6391 4.06008 22.9376 3.769 22.1633C3.48132 21.4244 3.2876 20.5823 3.2296 19.3469C3.17508 18.1103 3.16 17.7171 3.16 14.5653C3.16 11.4136 3.1716 11.0204 3.2296 9.78381C3.2876 8.54725 3.48132 7.70741 3.769 6.96733C4.05928 6.19266 4.51582 5.49102 5.10648 4.91181C5.6861 4.32164 6.38762 3.86518 7.162 3.57433C7.90208 3.28665 8.74192 3.09293 9.97848 3.03493C11.215 2.98041 11.6083 2.96533 14.76 2.96533ZM14.76 8.76533C13.2217 8.76533 11.7465 9.3764 10.6588 10.4641C9.57107 11.5518 8.96 13.0271 8.96 14.5653C8.96 16.1036 9.57107 17.5788 10.6588 18.6666C11.7465 19.7543 13.2217 20.3653 14.76 20.3653C16.2983 20.3653 17.7735 19.7543 18.8612 18.6666C19.9489 17.5788 20.56 16.1036 20.56 14.5653C20.56 13.0271 19.9489 11.5518 18.8612 10.4641C17.7735 9.3764 16.2983 8.76533 14.76 8.76533ZM22.3 8.47533C22.3 8.09077 22.1472 7.72195 21.8753 7.45003C21.6034 7.1781 21.2346 7.02533 20.85 7.02533C20.4654 7.02533 20.0966 7.1781 19.8247 7.45003C19.5528 7.72195 19.4 8.09077 19.4 8.47533C19.4 8.8599 19.5528 9.22871 19.8247 9.50064C20.0966 9.77256 20.4654 9.92533 20.85 9.92533C21.2346 9.92533 21.6034 9.77256 21.8753 9.50064C22.1472 9.22871 22.3 8.8599 22.3 8.47533ZM14.76 11.0853C15.683 11.0853 16.5681 11.452 17.2207 12.1046C17.8734 12.7572 18.24 13.6424 18.24 14.5653C18.24 15.4883 17.8734 16.3734 17.2207 17.0261C16.5681 17.6787 15.683 18.0453 14.76 18.0453C13.8371 18.0453 12.9519 17.6787 12.2993 17.0261C11.6466 16.3734 11.28 15.4883 11.28 14.5653C11.28 13.6424 11.6466 12.7572 12.2993 12.1046C12.9519 11.452 13.8371 11.0853 14.76 11.0853Z" fill="white"/>
</g>
<defs>
<clipPath id="clip0_150_618">
<rect width="27.84" height="27.84" fill="white" transform="translate(0.839996 0.645264)"/>
</clipPath>
</defs>
</svg>
