<svg width="48" height="48" viewBox="0 0 48 48" fill="none" xmlns="http://www.w3.org/2000/svg">
<g clip-path="url(#clip0_298_519)">
<path d="M25.8198 11.6011C24.7909 11.6011 24.095 12.1536 23.5631 13.0952C23.3429 13.485 23.1652 13.9453 23.0316 14.4465C23.9275 14.2963 24.8576 14.2171 25.8198 14.2171C26.7821 14.2171 27.712 14.2963 28.6081 14.4465C28.4745 13.9453 28.2968 13.485 28.0766 13.0952C27.5447 12.1536 26.8488 11.6011 25.8198 11.6011ZM25.8198 15.8982C16.367 15.8982 10.4841 23.9357 10.1051 32.153H41.5346C41.1555 23.9357 35.2726 15.8982 25.8198 15.8982ZM7.32711 32.586L6.31982 33.7748C7.75405 35.4676 9.35631 35.5156 10.6227 35.5156H41.0169C42.2833 35.5156 43.8855 35.4676 45.3198 33.7748L44.3125 32.586C43.2139 33.8825 42.2833 33.8345 41.0169 33.8345H10.6227C9.35631 33.8345 8.42565 33.8825 7.32711 32.586ZM14.4864 37.1971L16.0696 40H35.57L37.1532 37.1971H14.4864Z" fill="#413D3D" fill-opacity="0.95"/>
</g>
<defs>
<clipPath id="clip0_298_519">
<rect width="47.36" height="47.36" fill="white" transform="translate(0.319824)"/>
</clipPath>
</defs>
</svg>
