<svg width="90" height="90" viewBox="0 0 90 90" fill="none" xmlns="http://www.w3.org/2000/svg">
<path d="M18.9712 44.0325C26.1637 44.9175 32.7412 39.5738 33.66 32.1C34.5787 24.6263 26.025 17.4225 29.13 7.5C13.7437 9.7275 8.44125 22.1288 7.605 28.8975C6.68625 36.3713 11.7787 43.1475 18.9712 44.0325Z" stroke="white" stroke-width="5" stroke-linecap="round" stroke-linejoin="round"/>
<path d="M26.25 75C19.0312 57.465 17.8875 41.9775 19.2487 30M35.655 66.255C40.0612 75.225 50.7037 77.7 59.4225 71.7825C68.1412 65.865 69.5175 49.4625 82.5 43.7437C68.6437 28.395 51.3637 33.9375 43.47 39.2963C34.7475 45.2138 31.2487 57.285 35.655 66.2588" stroke="white" stroke-width="5" stroke-linecap="round" stroke-linejoin="round"/>
<path d="M22.5 82.5C31.4175 67.14 42.24 57.8625 52.5 52.5" stroke="white" stroke-width="5" stroke-linecap="round" stroke-linejoin="round"/>
</svg>
