<svg width="40" height="40" viewBox="0 0 40 40" fill="none" xmlns="http://www.w3.org/2000/svg">
<path d="M19.9997 18.9749C18.6252 18.9749 17.448 18.4849 16.468 17.5049C15.488 16.5249 14.9986 15.3483 14.9997 13.9749C15.0008 12.6016 15.4902 11.4238 16.468 10.4416C17.4458 9.45939 18.623 8.97105 19.9997 8.97661C21.3763 8.98216 22.5536 9.47105 23.5313 10.4433C24.5091 11.4155 24.9986 12.5933 24.9997 13.9766C25.0008 15.3599 24.5113 16.5366 23.5313 17.5066C22.5513 18.4766 21.3741 18.9649 19.9997 18.9749ZM8.33301 31.0266V28.2833C8.33301 27.5955 8.53301 26.9522 8.93301 26.3533C9.33412 25.7533 9.87301 25.2877 10.5497 24.9566C12.123 24.2022 13.6975 23.6366 15.273 23.2599C16.8475 22.8822 18.423 22.6933 19.9997 22.6933C21.5763 22.6933 23.1525 22.8822 24.728 23.2599C26.3036 23.6377 27.8769 24.2033 29.448 24.9566C30.1258 25.2877 30.6647 25.7533 31.0647 26.3533C31.4658 26.9522 31.6663 27.5955 31.6663 28.2833V31.0266H8.33301Z" fill="#606060"/>
</svg>
