<svg width="231" height="231" viewBox="0 0 231 231" fill="none" xmlns="http://www.w3.org/2000/svg">
<path d="M203.421 92.8773C200.034 89.3375 196.53 85.6898 195.209 82.4824C193.988 79.5445 193.916 74.675 193.844 69.9582C193.709 61.1894 193.565 51.2527 186.656 44.3438C179.747 37.4348 169.811 37.291 161.042 37.1562C156.325 37.0844 151.455 37.0125 148.518 35.7906C145.319 34.4699 141.662 30.966 138.123 27.5789C131.923 21.6223 124.88 14.875 115.5 14.875C106.12 14.875 99.0855 21.6223 92.8773 27.5789C89.3375 30.966 85.6898 34.4699 82.4824 35.7906C79.5625 37.0125 74.675 37.0844 69.9582 37.1562C61.1894 37.291 51.2527 37.4348 44.3438 44.3438C37.4348 51.2527 37.3359 61.1894 37.1562 69.9582C37.0844 74.675 37.0125 79.5445 35.7906 82.4824C34.4699 85.6809 30.966 89.3375 27.5789 92.8773C21.6223 99.0766 14.875 106.12 14.875 115.5C14.875 124.88 21.6223 131.914 27.5789 138.123C30.966 141.662 34.4699 145.31 35.7906 148.518C37.0125 151.455 37.0844 156.325 37.1562 161.042C37.291 169.811 37.4348 179.747 44.3438 186.656C51.2527 193.565 61.1894 193.709 69.9582 193.844C74.675 193.916 79.5445 193.988 82.4824 195.209C85.6809 196.53 89.3375 200.034 92.8773 203.421C99.0766 209.378 106.12 216.125 115.5 216.125C124.88 216.125 131.914 209.378 138.123 203.421C141.662 200.034 145.31 196.53 148.518 195.209C151.455 193.988 156.325 193.916 161.042 193.844C169.811 193.709 179.747 193.565 186.656 186.656C193.565 179.747 193.709 169.811 193.844 161.042C193.916 156.325 193.988 151.455 195.209 148.518C196.53 145.319 200.034 141.662 203.421 138.123C209.378 131.923 216.125 124.88 216.125 115.5C216.125 106.12 209.378 99.0855 203.421 92.8773ZM193.044 128.177C188.741 132.669 184.284 137.314 181.921 143.019C179.657 148.5 179.559 154.762 179.469 160.826C179.379 167.115 179.28 173.701 176.486 176.486C173.692 179.271 167.151 179.379 160.826 179.469C154.762 179.559 148.5 179.657 143.019 181.921C137.314 184.284 132.669 188.741 128.177 193.044C123.685 197.348 119.094 201.75 115.5 201.75C111.906 201.75 107.279 197.33 102.823 193.044C98.3668 188.759 93.6859 184.284 87.9809 181.921C82.5004 179.657 76.2383 179.559 70.1738 179.469C63.8848 179.379 57.2992 179.28 54.5141 176.486C51.7289 173.692 51.6211 167.151 51.5312 160.826C51.4414 154.762 51.3426 148.5 49.0785 143.019C46.7156 137.314 42.2594 132.669 37.9559 128.177C33.6523 123.685 29.25 119.094 29.25 115.5C29.25 111.906 33.6703 107.279 37.9559 102.823C42.2414 98.3668 46.7156 93.6859 49.0785 87.9809C51.3426 82.5004 51.4414 76.2383 51.5312 70.1738C51.6211 63.8848 51.7199 57.2992 54.5141 54.5141C57.3082 51.7289 63.8488 51.6211 70.1738 51.5312C76.2383 51.4414 82.5004 51.3426 87.9809 49.0785C93.6859 46.7156 98.3309 42.2594 102.823 37.9559C107.315 33.6523 111.906 29.25 115.5 29.25C119.094 29.25 123.721 33.6703 128.177 37.9559C132.633 42.2414 137.314 46.7156 143.019 49.0785C148.5 51.3426 154.762 51.4414 160.826 51.5312C167.115 51.6211 173.701 51.7199 176.486 54.5141C179.271 57.3082 179.379 63.8488 179.469 70.1738C179.559 76.2383 179.657 82.5004 181.921 87.9809C184.284 93.6859 188.741 98.3309 193.044 102.823C197.348 107.315 201.75 111.906 201.75 115.5C201.75 119.094 197.33 123.721 193.044 128.177ZM156.523 88.8523C157.191 89.5199 157.721 90.3126 158.083 91.1851C158.444 92.0577 158.631 92.993 158.631 93.9375C158.631 94.882 158.444 95.8173 158.083 96.6899C157.721 97.5624 157.191 98.3551 156.523 99.0227L106.21 149.335C105.543 150.003 104.75 150.534 103.877 150.895C103.005 151.257 102.07 151.443 101.125 151.443C100.18 151.443 99.2452 151.257 98.3726 150.895C97.5001 150.534 96.7074 150.003 96.0398 149.335L74.4773 127.773C73.1287 126.424 72.371 124.595 72.371 122.688C72.371 120.78 73.1287 118.951 74.4773 117.602C75.826 116.254 77.6552 115.496 79.5625 115.496C81.4698 115.496 83.299 116.254 84.6477 117.602L101.125 134.089L146.352 88.8523C147.02 88.1841 147.813 87.6539 148.685 87.2922C149.558 86.9305 150.493 86.7443 151.438 86.7443C152.382 86.7443 153.317 86.9305 154.19 87.2922C155.062 87.6539 155.855 88.1841 156.523 88.8523Z" fill="#3CB57A"/>
</svg>
