<svg width="29" height="29" viewBox="0 0 29 29" fill="none" xmlns="http://www.w3.org/2000/svg">
<path d="M14.1315 25.8938C12.7511 25.8938 11.8301 25.2419 11.0076 24.6677C10.423 24.2536 9.87548 23.8604 9.22936 23.7513C8.9217 23.6986 8.61001 23.673 8.29788 23.6748C7.75036 23.6748 7.31536 23.7571 7.00564 23.8198C6.80844 23.8546 6.64372 23.8871 6.5138 23.8871C6.37924 23.8871 6.20872 23.8499 6.1426 23.6226C6.0846 23.437 6.04864 23.2607 6.01268 23.0901C5.91988 22.6609 5.84216 22.3976 5.68092 22.3709C3.95367 22.1076 2.92011 21.7097 2.71827 21.2388C2.70203 21.1877 2.68231 21.1344 2.68231 21.0938C2.67071 20.9499 2.77511 20.8305 2.92011 20.8038C4.29007 20.5776 5.52084 19.8479 6.5602 18.6485C7.36756 17.717 7.7608 16.8169 7.79676 16.7194C7.79676 16.7078 7.8072 16.7078 7.8072 16.7078C8.00517 16.3003 8.04461 15.9542 7.92552 15.6696C7.7028 15.136 6.96852 14.9087 6.4674 14.7532C6.33864 14.7184 6.2296 14.6767 6.1368 14.6453C5.7076 14.4748 4.99303 14.1117 5.08699 13.6106C5.15427 13.2487 5.63452 12.99 6.02776 12.99C6.1368 12.9885 6.2296 13.0078 6.30616 13.048C6.74696 13.2487 7.14484 13.3519 7.48588 13.3519C7.91044 13.3519 8.11228 13.1919 8.16332 13.1408C8.15251 12.9114 8.13897 12.6821 8.12272 12.4529C8.01832 10.8695 7.9 8.9045 8.40112 7.77814C9.9068 4.40602 13.1026 4.13574 14.0492 4.13574L14.4621 4.12646H14.5201C15.4655 4.12646 18.6613 4.38978 20.167 7.7677C20.6739 8.89406 20.5498 10.8649 20.4454 12.4425L20.435 12.5202C20.4257 12.7313 20.4094 12.9332 20.4002 13.1408C20.4512 13.1814 20.6368 13.3369 21.0196 13.3415C21.3514 13.3322 21.7133 13.2232 22.1262 13.0364C22.2405 12.9869 22.3636 12.9608 22.4882 12.9599C22.6332 12.9599 22.7782 12.9947 22.9023 13.0364H22.9127C23.2596 13.1663 23.4869 13.4088 23.4869 13.6628C23.4974 13.9006 23.3106 14.2625 22.4267 14.6198C22.3339 14.6546 22.2248 14.6975 22.0961 14.7277C21.6042 14.8785 20.87 15.1163 20.6368 15.6441C20.508 15.9225 20.5591 16.2798 20.7563 16.6835C20.7563 16.6927 20.7667 16.6927 20.7667 16.6927C20.8236 16.8377 22.3176 20.2307 25.6434 20.7841C25.7113 20.7955 25.7729 20.8312 25.8166 20.8845C25.8603 20.9378 25.8832 21.0051 25.8812 21.0741C25.8819 21.1259 25.8699 21.1757 25.8452 21.2237C25.6434 21.6993 24.6191 22.0867 22.8814 22.3559C22.7213 22.3814 22.6436 22.6458 22.5508 23.0751C22.5139 23.2539 22.4709 23.4315 22.422 23.6075C22.3698 23.778 22.2608 23.8708 22.074 23.8708H22.0497C21.8843 23.8678 21.7196 23.8488 21.5578 23.814C21.1327 23.7235 20.6991 23.6784 20.2644 23.6794C19.9527 23.6803 19.6416 23.7063 19.3341 23.7571C18.6926 23.8615 18.1393 24.2594 17.5547 24.6735C16.7218 25.2419 15.7961 25.8938 14.4262 25.8938H14.1315Z" fill="white"/>
</svg>
