<svg width="25" height="25" viewBox="0 0 25 25" fill="none" xmlns="http://www.w3.org/2000/svg">
<g clip-path="url(#clip0_150_513)">
<path d="M22.7167 19.0833L16.172 15.9798C17.0451 15.5421 20.455 15.4033 20.737 14.6337C20.737 14.6337 19.3894 12.5653 19.0604 9.87878C18.9326 8.83613 18.7137 7.46787 18.4964 5.54087C18.1438 2.41518 15.5147 0.220093 12.194 0.220093H12.1819C8.86106 0.220093 6.23207 2.41518 5.87976 5.54049C5.66243 7.46749 5.4436 8.83576 5.31576 9.8784C4.98676 12.5653 3.63918 14.6333 3.63918 14.6333C3.92118 15.403 7.33075 15.5417 8.20419 15.9794L1.65916 19.0833C1.65916 19.0833 0.155914 19.6112 0.155914 20.8568V22.8433C0.155914 23.6746 0.828578 24.2841 1.65916 24.2841H22.7167C23.5472 24.2841 24.2199 23.6746 24.2199 22.8433V20.8568C24.2199 19.6112 22.7167 19.0833 22.7167 19.0833ZM1.65989 22.7801V20.8568C1.65989 20.7768 1.94415 20.5842 2.17539 20.4963C2.22537 20.4786 2.25623 20.4647 2.30323 20.4417L8.84786 17.3382C9.36787 17.0923 9.70138 16.5701 9.70779 15.9952C9.71381 15.4203 9.39195 14.8913 8.87794 14.6337C8.36846 14.378 7.69504 14.2517 6.63961 14.0689C6.38919 14.025 6.04703 13.9633 5.71503 13.8971C6.14555 12.9311 6.62119 11.5802 6.80846 10.0517C6.85471 9.6712 6.91411 9.24296 6.98029 8.76883C7.09422 7.96193 7.23522 6.93884 7.37396 5.70856C7.63641 3.38524 9.61304 1.72407 12.1819 1.72407H12.1939C14.7627 1.72407 16.7397 3.38524 17.0018 5.70892C17.1406 6.93881 17.2816 7.96226 17.3955 8.76918C17.4617 9.24332 17.5211 9.67158 17.5673 10.0521C17.7546 11.5802 18.2306 12.9311 18.6607 13.8975C18.3287 13.9636 17.9866 14.0253 17.7361 14.0693C16.6807 14.252 16.0073 14.3784 15.4978 14.6341C14.9838 14.892 14.662 15.4206 14.668 15.9955C14.6748 16.5705 15.0079 17.0927 15.5279 17.3386L22.0725 20.4421C22.1195 20.465 22.1504 20.4789 22.2004 20.4966C22.4316 20.5846 22.682 20.7771 22.7159 20.8572L22.7166 22.7801L1.65989 22.7801Z" fill="black"/>
</g>
<defs>
<clipPath id="clip0_150_513">
<rect width="24.064" height="24.064" fill="white" transform="translate(0.155914 0.220093)"/>
</clipPath>
</defs>
</svg>
