<svg width="25" height="25" viewBox="0 0 25 25" fill="none" xmlns="http://www.w3.org/2000/svg">
<g clip-path="url(#clip0_150_498)">
<path d="M12.0872 13.2952C13.3523 13.2952 14.5655 12.8262 15.46 11.9913C16.3545 11.1564 16.8571 10.0241 16.8571 8.84338V5.87549C16.8571 4.69478 16.3545 3.56244 15.46 2.72756C14.5655 1.89268 13.3523 1.42365 12.0872 1.42365C10.8222 1.42365 9.60898 1.89268 8.71447 2.72756C7.81995 3.56244 7.31742 4.69478 7.31742 5.87549V8.84338C7.31742 10.0241 7.81995 11.1564 8.71447 11.9913C9.60898 12.8262 10.8222 13.2952 12.0872 13.2952ZM12.0872 13.2952C17.3563 13.2952 23.2169 16.3893 23.2169 21.1186V22.1989C23.2169 22.5925 23.0493 22.9699 22.7512 23.2482C22.453 23.5265 22.0486 23.6829 21.6269 23.6829H2.54759C2.12591 23.6829 1.7215 23.5265 1.42333 23.2482C1.12515 22.9699 0.957642 22.5925 0.957642 22.1989V21.1186C0.957642 16.3893 6.81817 13.2952 12.0872 13.2952Z" stroke="black" stroke-width="1.2032" stroke-linecap="round" stroke-linejoin="round"/>
</g>
<defs>
<clipPath id="clip0_150_498">
<rect width="24.064" height="24.064" fill="white" transform="translate(0.356079 0.220093)"/>
</clipPath>
</defs>
</svg>
