<svg width="29" height="29" viewBox="0 0 29 29" fill="none" xmlns="http://www.w3.org/2000/svg">
<path d="M14.4412 2.96558C20.8478 2.96558 26.0412 8.15889 26.0412 14.5656C26.0412 20.9722 20.8478 26.1656 14.4412 26.1656C12.3912 26.1691 10.3772 25.6266 8.60636 24.5938L2.8458 26.1656L4.41412 20.4027C3.38051 18.6313 2.83756 16.6165 2.84115 14.5656C2.84115 8.15889 8.03448 2.96558 14.4412 2.96558ZM10.4879 9.11357L10.2559 9.12285C10.1059 9.13319 9.95932 9.17258 9.82436 9.23885C9.69858 9.3102 9.58373 9.39928 9.48332 9.50333C9.34412 9.63441 9.26524 9.74809 9.18056 9.85829C8.7515 10.4161 8.52049 11.101 8.524 11.8048C8.52632 12.3732 8.6748 12.9265 8.9068 13.4438C9.38124 14.4902 10.1619 15.598 11.192 16.6246C11.4402 16.8716 11.6838 17.1199 11.946 17.3507C13.226 18.4776 14.7512 19.2902 16.4004 19.7241L17.0593 19.825C17.2739 19.8366 17.4885 19.8204 17.7042 19.8099C18.042 19.7921 18.3718 19.7007 18.6705 19.542C18.8223 19.4635 18.9705 19.3783 19.1148 19.2868C19.1148 19.2868 19.1639 19.2535 19.2598 19.1824C19.4164 19.0664 19.5127 18.984 19.6426 18.8483C19.74 18.7478 19.8212 18.631 19.8862 18.498C19.9767 18.3089 20.0672 17.9481 20.1043 17.6477C20.1321 17.418 20.124 17.2927 20.1205 17.215C20.1159 17.0909 20.0126 16.9621 19.9001 16.9076L19.225 16.6048C19.225 16.6048 18.2158 16.1652 17.5987 15.8845C17.5341 15.8564 17.4649 15.8402 17.3945 15.8369C17.3151 15.8286 17.2349 15.8375 17.1593 15.8629C17.0836 15.8883 17.0143 15.9297 16.956 15.9842C16.9502 15.9819 16.8725 16.048 16.0338 17.0642C15.9857 17.1289 15.9194 17.1778 15.8434 17.2046C15.7673 17.2315 15.685 17.2351 15.607 17.215C15.5314 17.1949 15.4573 17.1693 15.3854 17.1384C15.2416 17.0781 15.1917 17.0549 15.0931 17.0132C14.4271 16.7231 13.8106 16.3305 13.2661 15.8497C13.1199 15.7221 12.9842 15.5829 12.845 15.4483C12.3887 15.0112 11.9909 14.5168 11.6618 13.9774L11.5934 13.8672C11.5449 13.7928 11.5052 13.713 11.475 13.6294C11.431 13.4589 11.5458 13.322 11.5458 13.322C11.5458 13.322 11.8277 13.0135 11.9588 12.8464C12.0864 12.684 12.1942 12.5263 12.2638 12.4138C12.4007 12.1934 12.4436 11.9672 12.3717 11.792C12.0469 10.9986 11.7113 10.2094 11.3648 9.42445C11.2964 9.26901 11.0934 9.15765 10.909 9.13561C10.8463 9.12788 10.7837 9.12169 10.721 9.11705C10.5653 9.10812 10.4091 9.10967 10.2536 9.12169L10.4879 9.11357Z" fill="white"/>
</svg>
